<svg width="20" height="18" viewBox="0 0 20 18" fill="none" xmlns="http://www.w3.org/2000/svg">
<path fill-rule="evenodd" clip-rule="evenodd" d="M12.8515 10.4999H12.2347L12.0203 10.2944C12.7777 9.44166 13.2384 8.33616 13.2384 7.12491C13.2384 4.43242 10.9777 2.24991 8.18856 2.24991C5.39947 2.24991 3.13867 4.43242 3.13867 7.12491C3.13867 9.81741 5.39947 11.9999 8.18856 11.9999C9.44326 11.9999 10.5876 11.5559 11.471 10.8254L11.6854 11.0309V11.6249L15.5684 15.3682L16.7268 14.2499L12.8515 10.4999ZM8.18856 10.4999C6.25717 10.4999 4.69248 8.98941 4.69248 7.12491C4.69248 5.26116 6.25717 3.74991 8.18856 3.74991C10.1192 3.74991 11.6846 5.26116 11.6846 7.12491C11.6846 8.98941 10.1192 10.4999 8.18856 10.4999Z" fill="#828282"/>
</svg>
